<svg width="195" height="76" viewBox="0 0 195 76" fill="none" xmlns="http://www.w3.org/2000/svg">
<path fill-rule="evenodd" clip-rule="evenodd" d="M23.4421 13.6261C24.7992 12.948 25.9356 11.8713 26.7099 10.5291C25.9692 11.0703 25.1432 11.4726 24.269 11.7177C22.3073 12.2752 20.2135 12.0005 18.4465 10.954C16.6799 9.90749 15.3852 8.17481 14.8471 6.13671C14.5786 5.10921 14.513 4.03598 14.6536 2.98143C14.7945 1.92693 15.1389 0.912802 15.666 0C14.3843 0.93681 13.411 2.26061 12.8779 3.79185C12.3449 5.32309 12.2778 6.98771 12.6857 8.55996C13.0896 10.0677 13.9105 11.4191 15.0457 12.4471C15.833 13.1599 16.7479 13.6956 17.7322 14.027C17.7168 14.0412 17.7018 14.0559 17.6872 14.071C17.4764 14.2893 17.3575 14.5854 17.3563 14.8946V17.4052C17.3571 17.7145 17.4764 18.0109 17.6868 18.2294C17.8977 18.448 18.1828 18.571 18.4805 18.5716H19.2291C19.526 18.5702 19.8103 18.4468 20.0204 18.2283C20.2301 18.0099 20.3485 17.7141 20.3493 17.4054V14.8946C20.3485 14.7276 20.3138 14.5643 20.2486 14.415C21.3506 14.3936 22.4404 14.1265 23.4421 13.6261ZM18.2842 25.8755H19.423C19.8782 25.8747 20.3146 25.6872 20.6368 25.3532C20.959 25.0191 21.141 24.5661 21.143 24.0929V20.2507C21.1413 19.8835 21.0312 19.5256 20.8275 19.2257C20.6237 18.9257 20.3359 18.6982 20.0034 18.5739C19.7957 18.7828 19.5178 18.8997 19.2287 18.9H18.4801C18.1903 18.9006 17.9115 18.7836 17.7026 18.5739C17.3705 18.6983 17.0831 18.9259 16.8793 19.2259C16.676 19.5258 16.5658 19.8836 16.5647 20.2507V24.0929C16.5667 24.5661 16.7483 25.0191 17.0705 25.3532C17.3927 25.6872 17.829 25.8752 18.2842 25.8755Z" fill="#EC9D00"/>
<path fill-rule="evenodd" clip-rule="evenodd" d="M23.3027 30.4874C23.3027 31.453 23.0272 32.3969 22.5111 33.2001C22.44 33.3104 22.3646 33.4179 22.2852 33.5217C27.2359 34.4796 31.5184 37.4905 34.3092 41.6271C37.3618 46.3411 34.0766 52.7619 28.6012 52.7619H28.4461C28.4552 51.4782 28.2186 50.2057 27.7499 49.0184C27.2816 47.8309 26.5903 46.7524 25.7169 45.845C24.8435 44.9377 23.8054 44.2199 22.6627 43.7336C21.52 43.2469 20.2956 43.0019 19.0605 43.0122C16.5746 43.0191 14.1916 44.0484 12.4334 45.875C10.6748 47.702 9.68323 50.1778 9.67519 52.7619C9.67519 57.8834 13.5086 62.0278 18.2811 62.5166H31.8481L40.5016 58.6956C40.6658 58.6229 40.8455 58.5938 41.0235 58.6106C41.2016 58.6275 41.3734 58.6902 41.5226 58.7929C41.6715 58.8954 41.7943 59.035 41.8788 59.1987C41.9637 59.3625 42.0079 59.5459 42.0079 59.7318V62.5166H46.2C46.4204 62.4386 46.6229 62.3151 46.7962 62.1534C46.9688 61.9913 47.1082 61.7948 47.2057 61.5752C47.3029 61.3557 47.3561 61.1176 47.362 60.8759C47.368 60.6342 47.3265 60.3937 47.2404 60.1693C46.3556 57.8412 45.9035 55.3601 45.9079 52.8567C45.9102 47.6617 47.8971 42.6805 51.4314 39.0073C54.9657 35.334 59.7587 33.2694 64.7567 33.2669C69.7551 33.2669 74.5489 35.3307 78.0833 39.0036C81.6177 42.6773 83.6032 47.6592 83.6032 52.8543C83.6032 58.0492 81.6177 63.0316 78.0833 66.7049C74.5489 70.3782 69.7551 72.442 64.7567 72.442H42.0079V74.7125C42.0079 74.8987 41.9637 75.0813 41.8788 75.2455C41.7943 75.4097 41.6719 75.549 41.5226 75.6509C41.3734 75.7535 41.2016 75.8165 41.0235 75.8341C40.8455 75.8503 40.6658 75.8209 40.5016 75.7491L33.0042 72.4375L18.8287 72.2709C8.0377 72.2709 -0.800166 62.6779 0.0576035 51.3014C0.630844 42.5706 6.90439 35.3184 14.9861 33.6002C14.491 32.9785 14.1502 32.2364 13.9978 31.4399C13.8165 30.4928 13.9093 29.5107 14.2651 28.619C14.6205 27.7268 15.2226 26.9644 15.9953 26.428C16.7676 25.8912 17.6761 25.6047 18.6053 25.6047C19.222 25.6047 19.8328 25.7311 20.403 25.9765C20.9728 26.222 21.4908 26.5815 21.9267 27.0349C22.363 27.4884 22.7089 28.0264 22.945 28.619C23.1812 29.2111 23.3027 29.8464 23.3027 30.4874ZM59.5428 60.9641C61.0862 62.0357 62.9009 62.6073 64.7567 62.6065C67.2422 62.5983 69.6236 61.5683 71.3813 59.7416C73.1382 57.915 74.1299 55.44 74.1377 52.8567C74.1384 50.9279 73.5882 49.0418 72.557 47.4377C71.5266 45.8335 70.0611 44.5831 68.3463 43.8448C66.6319 43.1065 64.7448 42.9128 62.9246 43.2896C61.1039 43.6655 59.4318 44.5941 58.1193 45.9582C56.8072 47.3223 55.9133 49.0603 55.5512 50.9526C55.1895 52.8444 55.3751 54.8056 56.0858 56.5874C56.7966 58.3697 57.9993 59.8926 59.5428 60.9641Z" fill="#154F30"/>
<path d="M71.0998 24.8319C71.0998 26.1361 70.7274 27.4107 70.0307 28.495C69.3334 29.5795 68.3423 30.4245 67.1831 30.9235C66.0238 31.423 64.7484 31.5535 63.5177 31.299C62.287 31.0446 61.1565 30.4168 60.2692 29.4946C59.382 28.5721 58.7779 27.3972 58.5327 26.1181C58.2879 24.8389 58.4135 23.5134 58.894 22.3085C59.3742 21.1035 60.1871 20.0736 61.2307 19.3491C62.2739 18.6245 63.5007 18.2378 64.7555 18.2378C66.438 18.2378 68.0518 18.9325 69.2414 20.1691C70.4315 21.4057 71.0998 23.0829 71.0998 24.8319Z" fill="#79939E"/>
<path d="M102.322 45.2453C102.386 45.2453 102.451 45.2587 102.515 45.2856C102.58 45.3071 102.642 45.3474 102.701 45.4066L103.781 46.5436C103.308 47.1618 102.714 47.6295 101.999 47.9467C101.289 48.2585 100.448 48.4144 99.4751 48.4144C98.5827 48.4144 97.7817 48.2639 97.0721 47.9628C96.3678 47.6564 95.7684 47.2371 95.2738 46.7049C94.7846 46.1673 94.4083 45.5329 94.1448 44.8018C93.8814 44.0653 93.7497 43.2669 93.7497 42.4068C93.7497 41.5305 93.8922 40.7268 94.1771 39.9957C94.462 39.2592 94.8625 38.6248 95.3786 38.0926C95.8947 37.5604 96.513 37.1464 97.2333 36.8507C97.9537 36.5551 98.7467 36.4072 99.6122 36.4072C100.053 36.4072 100.467 36.4475 100.854 36.5282C101.246 36.6034 101.612 36.711 101.951 36.8507C102.289 36.9851 102.601 37.1491 102.886 37.3426C103.171 37.5362 103.424 37.7458 103.644 37.9716L102.725 39.2054C102.666 39.2807 102.596 39.3506 102.515 39.4151C102.435 39.4742 102.322 39.5038 102.177 39.5038C102.08 39.5038 101.988 39.4823 101.902 39.4393C101.816 39.3962 101.725 39.3452 101.628 39.286C101.531 39.2215 101.424 39.1543 101.306 39.0844C101.193 39.0092 101.056 38.942 100.894 38.8828C100.738 38.8183 100.553 38.7646 100.338 38.7216C100.128 38.6786 99.881 38.6571 99.5961 38.6571C99.1445 38.6571 98.7305 38.7404 98.3542 38.907C97.9833 39.0737 97.6607 39.3183 97.3866 39.6409C97.1178 39.958 96.9081 40.3505 96.7576 40.8182C96.6124 41.2805 96.5398 41.8101 96.5398 42.4068C96.5398 43.0089 96.6205 43.5438 96.7818 44.0115C96.9484 44.4792 97.1715 44.8744 97.4511 45.1969C97.736 45.5141 98.0666 45.756 98.4429 45.9227C98.8192 46.0893 99.2224 46.1726 99.6525 46.1726C99.8998 46.1726 100.126 46.1619 100.33 46.1404C100.534 46.1135 100.725 46.0732 100.902 46.0194C101.08 45.9603 101.246 45.885 101.402 45.7936C101.558 45.6969 101.717 45.5759 101.878 45.4308C101.943 45.377 102.013 45.334 102.088 45.3017C102.163 45.2641 102.241 45.2453 102.322 45.2453ZM120.235 42.4068C120.235 43.2562 120.087 44.0465 119.792 44.7776C119.501 45.5087 119.09 46.1458 118.558 46.6887C118.026 47.2263 117.383 47.6483 116.631 47.9548C115.883 48.2612 115.053 48.4144 114.139 48.4144C113.225 48.4144 112.392 48.2612 111.639 47.9548C110.886 47.6483 110.241 47.2263 109.704 46.6887C109.171 46.1458 108.758 45.5087 108.462 44.7776C108.172 44.0465 108.026 43.2562 108.026 42.4068C108.026 41.5574 108.172 40.7671 108.462 40.036C108.758 39.3049 109.171 38.6705 109.704 38.1329C110.241 37.5953 110.886 37.1733 111.639 36.8669C112.392 36.5604 113.225 36.4072 114.139 36.4072C115.053 36.4072 115.883 36.5631 116.631 36.8749C117.383 37.1814 118.026 37.6034 118.558 38.141C119.09 38.6786 119.501 39.3129 119.792 40.0441C120.087 40.7752 120.235 41.5628 120.235 42.4068ZM117.445 42.4068C117.445 41.8262 117.37 41.3047 117.219 40.8424C117.069 40.3747 116.851 39.9795 116.566 39.657C116.287 39.3344 115.943 39.0871 115.534 38.9151C115.125 38.7431 114.66 38.6571 114.139 38.6571C113.612 38.6571 113.142 38.7431 112.728 38.9151C112.319 39.0871 111.972 39.3344 111.687 39.657C111.408 39.9795 111.193 40.3747 111.042 40.8424C110.892 41.3047 110.817 41.8262 110.817 42.4068C110.817 42.9928 110.892 43.5196 111.042 43.9873C111.193 44.4497 111.408 44.8421 111.687 45.1647C111.972 45.4872 112.319 45.7345 112.728 45.9065C113.142 46.0732 113.612 46.1565 114.139 46.1565C114.66 46.1565 115.125 46.0732 115.534 45.9065C115.943 45.7345 116.287 45.4872 116.566 45.1647C116.851 44.8421 117.069 44.4497 117.219 43.9873C117.37 43.5196 117.445 42.9928 117.445 42.4068ZM135.829 36.5362V48.2854H134.41C134.2 48.2854 134.023 48.2531 133.878 48.1886C133.738 48.1187 133.598 48.0005 133.458 47.8338L127.919 40.8263C127.94 41.0359 127.953 41.2402 127.959 41.4391C127.97 41.6326 127.975 41.8154 127.975 41.9875V48.2854H125.572V36.5362H127.007C127.126 36.5362 127.225 36.5416 127.306 36.5524C127.386 36.5631 127.459 36.5846 127.523 36.6169C127.588 36.6438 127.65 36.6841 127.709 36.7378C127.768 36.7916 127.835 36.8642 127.91 36.9556L133.499 44.0115C133.472 43.7857 133.453 43.568 133.442 43.3583C133.432 43.1433 133.426 42.9417 133.426 42.7535V36.5362H135.829ZM152.099 36.5362V48.2854H150.68C150.47 48.2854 150.293 48.2531 150.147 48.1886C150.008 48.1187 149.868 48.0005 149.728 47.8338L144.188 40.8263C144.21 41.0359 144.223 41.2402 144.228 41.4391C144.239 41.6326 144.245 41.8154 144.245 41.9875V48.2854H141.842V36.5362H143.277C143.395 36.5362 143.495 36.5416 143.575 36.5524C143.656 36.5631 143.729 36.5846 143.793 36.6169C143.858 36.6438 143.919 36.6841 143.978 36.7378C144.038 36.7916 144.105 36.8642 144.18 36.9556L149.768 44.0115C149.742 43.7857 149.723 43.568 149.712 43.3583C149.701 43.1433 149.696 42.9417 149.696 42.7535V36.5362H152.099ZM160.853 38.6329V41.3746H164.546V43.3906H160.853V46.1888H165.675V48.2854H158.111V36.5362H165.675V38.6329H160.853ZM179.008 45.2453C179.072 45.2453 179.137 45.2587 179.201 45.2856C179.266 45.3071 179.328 45.3474 179.387 45.4066L180.467 46.5436C179.994 47.1618 179.4 47.6295 178.685 47.9467C177.976 48.2585 177.134 48.4144 176.161 48.4144C175.269 48.4144 174.468 48.2639 173.758 47.9628C173.054 47.6564 172.455 47.2371 171.96 46.7049C171.471 46.1673 171.094 45.5329 170.831 44.8018C170.568 44.0653 170.436 43.2669 170.436 42.4068C170.436 41.5305 170.578 40.7268 170.863 39.9957C171.148 39.2592 171.549 38.6248 172.065 38.0926C172.581 37.5604 173.199 37.1464 173.92 36.8507C174.64 36.5551 175.433 36.4072 176.298 36.4072C176.739 36.4072 177.153 36.4475 177.54 36.5282C177.933 36.6034 178.298 36.711 178.637 36.8507C178.976 36.9851 179.287 37.1491 179.572 37.3426C179.857 37.5362 180.11 37.7458 180.33 37.9716L179.411 39.2054C179.352 39.2807 179.282 39.3506 179.201 39.4151C179.121 39.4742 179.008 39.5038 178.863 39.5038C178.766 39.5038 178.675 39.4823 178.589 39.4393C178.503 39.3962 178.411 39.3452 178.314 39.286C178.218 39.2215 178.11 39.1543 177.992 39.0844C177.879 39.0092 177.742 38.942 177.581 38.8828C177.425 38.8183 177.239 38.7646 177.024 38.7216C176.814 38.6786 176.567 38.6571 176.282 38.6571C175.831 38.6571 175.417 38.7404 175.04 38.907C174.669 39.0737 174.347 39.3183 174.073 39.6409C173.804 39.958 173.594 40.3505 173.444 40.8182C173.299 41.2805 173.226 41.8101 173.226 42.4068C173.226 43.0089 173.307 43.5438 173.468 44.0115C173.635 44.4792 173.858 44.8744 174.137 45.1969C174.422 45.5141 174.753 45.756 175.129 45.9227C175.505 46.0893 175.909 46.1726 176.339 46.1726C176.586 46.1726 176.812 46.1619 177.016 46.1404C177.22 46.1135 177.411 46.0732 177.589 46.0194C177.766 45.9603 177.933 45.885 178.089 45.7936C178.245 45.6969 178.403 45.5759 178.564 45.4308C178.629 45.377 178.699 45.334 178.774 45.3017C178.849 45.2641 178.927 45.2453 179.008 45.2453ZM193.345 38.6974H190.038V48.2854H187.313V38.6974H184.007V36.5362H193.345V38.6974Z" fill="#154F30"/>
<path d="M107.612 57.1065V68.8557H105.209V62.0981C105.209 61.9422 105.211 61.7729 105.217 61.5901C105.227 61.4073 105.244 61.2218 105.265 61.0337L102.144 67.0736C102.048 67.2617 101.916 67.4042 101.749 67.501C101.588 67.5977 101.402 67.6461 101.193 67.6461H100.822C100.612 67.6461 100.424 67.5977 100.257 67.501C100.096 67.4042 99.967 67.2617 99.8702 67.0736L96.7495 61.0176C96.7656 61.2111 96.7791 61.4019 96.7898 61.5901C96.8006 61.7729 96.8059 61.9422 96.8059 62.0981V68.8557H94.4029V57.1065H96.4834C96.6017 57.1065 96.7038 57.1092 96.7898 57.1146C96.8812 57.12 96.9619 57.1361 97.0317 57.163C97.1016 57.1899 97.1634 57.2329 97.2172 57.292C97.2763 57.3458 97.3328 57.4237 97.3866 57.5259L100.411 63.4851C100.518 63.6894 100.62 63.9018 100.717 64.1222C100.819 64.3426 100.916 64.5684 101.007 64.7995C101.099 64.563 101.193 64.3318 101.289 64.1061C101.392 63.8803 101.499 63.6652 101.612 63.4609L104.628 57.5259C104.682 57.4237 104.735 57.3458 104.789 57.292C104.848 57.2329 104.913 57.1899 104.983 57.163C105.053 57.1361 105.131 57.12 105.217 57.1146C105.308 57.1092 105.413 57.1065 105.531 57.1065H107.612ZM119.276 64.3641L118.187 61.1466C118.106 60.9423 118.02 60.7031 117.929 60.4289C117.838 60.1493 117.746 59.8483 117.655 59.5257C117.574 59.8537 117.488 60.1574 117.397 60.437C117.305 60.7165 117.219 60.9584 117.139 61.1627L116.058 64.3641H119.276ZM123.606 68.8557H121.493C121.257 68.8557 121.066 68.802 120.921 68.6944C120.776 68.5815 120.665 68.4391 120.59 68.267L119.897 66.2188H115.429L114.736 68.267C114.677 68.4176 114.569 68.5547 114.413 68.6783C114.263 68.7966 114.075 68.8557 113.849 68.8557H111.72L116.268 57.1065H119.058L123.606 68.8557ZM136.044 58.0904C136.044 58.2301 136.02 58.3672 135.971 58.5016C135.928 58.636 135.867 58.7623 135.786 58.8806L130.27 66.7591H135.867V68.8557H126.803V67.8074C126.803 67.6838 126.824 67.5628 126.867 67.4445C126.91 67.3209 126.969 67.208 127.045 67.1058L132.576 59.2032H127.254V57.1065H136.044V58.0904ZM145.68 64.598C145.68 65.2538 145.597 65.8506 145.43 66.3881C145.269 66.9257 145.022 67.3881 144.689 67.7751C144.361 68.1568 143.947 68.4552 143.447 68.6702C142.947 68.8799 142.358 68.9847 141.681 68.9847C141.374 68.9847 141.07 68.9686 140.769 68.9364C140.474 68.9041 140.165 68.8503 139.842 68.7751L139.987 67.1865C140.003 67.0467 140.06 66.9338 140.157 66.8478C140.253 66.7618 140.39 66.7188 140.568 66.7188C140.659 66.7188 140.772 66.7349 140.907 66.7672C141.041 66.794 141.202 66.8075 141.39 66.8075C141.654 66.8075 141.882 66.7725 142.076 66.7026C142.275 66.6274 142.439 66.5064 142.568 66.3398C142.697 66.1677 142.793 65.9446 142.858 65.6705C142.922 65.3963 142.955 65.0576 142.955 64.6544V57.1065H145.68V64.598ZM154.317 68.8557H151.575V57.1065H154.317V68.8557ZM170.977 62.9771C170.977 63.8265 170.829 64.6114 170.533 65.3318C170.243 66.0468 169.832 66.6677 169.299 67.1945C168.767 67.716 168.125 68.1246 167.372 68.4203C166.625 68.7106 165.794 68.8557 164.88 68.8557H160.316V57.1065H164.88C165.794 57.1065 166.625 57.2544 167.372 57.5501C168.125 57.8457 168.767 58.2543 169.299 58.7758C169.832 59.2973 170.243 59.9182 170.533 60.6386C170.829 61.3536 170.977 62.1331 170.977 62.9771ZM168.187 62.9771C168.187 62.3965 168.111 61.8723 167.961 61.4046C167.81 60.9369 167.593 60.5418 167.308 60.2192C167.028 59.8913 166.684 59.6413 166.275 59.4693C165.867 59.2919 165.402 59.2032 164.88 59.2032H163.058V66.7591H164.88C165.402 66.7591 165.867 66.6731 166.275 66.501C166.684 66.3236 167.028 66.0737 167.308 65.7511C167.593 65.4232 167.81 65.0253 167.961 64.5576C168.111 64.0899 168.187 63.5631 168.187 62.9771Z" fill="#79939E"/>
</svg>
