<svg width="42" height="42" viewBox="0 0 42 42" fill="none" xmlns="http://www.w3.org/2000/svg">
<path d="M22.759 2.10831C22.759 0.970357 21.828 0.0393066 20.69 0.0393066C19.5521 0.0393066 18.621 0.970357 18.621 2.10831V4.17731C18.621 5.31526 19.5521 6.24631 20.69 6.24631C21.828 6.24631 22.759 5.31526 22.759 4.17731V2.10831Z" fill="#F2C14E"/>
<path d="M22.759 29.0053C22.759 27.8674 21.828 26.9363 20.69 26.9363C19.5521 26.9363 18.621 27.8674 18.621 29.0053V34.3637L18.0209 33.7434C17.214 32.9365 15.89 32.9365 15.0831 33.7434C14.2762 34.5503 14.2762 35.8743 15.0831 36.6812L19.2211 40.8192C20.028 41.6261 21.352 41.6261 22.1589 40.8192L26.2969 36.6812C27.1038 35.8743 27.1038 34.5503 26.2969 33.7434C25.49 32.9365 24.166 32.9365 23.3591 33.7434L22.759 34.3637V29.0053Z" fill="#F2C14E"/>
<path d="M39.311 22.7983C40.449 22.7983 41.38 21.8673 41.38 20.7293C41.38 19.5914 40.449 18.6603 39.311 18.6603H37.242C36.1041 18.6603 35.173 19.5914 35.173 20.7293C35.173 21.8673 36.1041 22.7983 37.242 22.7983H39.311Z" fill="#F2C14E"/>
<path d="M6.207 20.7293C6.207 21.8673 5.27595 22.7983 4.138 22.7983H2.069C0.93105 22.7983 0 21.8673 0 20.7293C0 19.5914 0.93105 18.6603 2.069 18.6603H4.138C5.27595 18.6603 6.207 19.5914 6.207 20.7293Z" fill="#F2C14E"/>
<path d="M35.3175 32.4402L33.8486 30.9713C33.0417 30.1644 31.7379 30.1644 30.931 30.9713C30.1241 31.7782 30.1241 33.081 30.931 33.8879L32.3999 35.3568C33.2068 36.1637 34.5106 36.1637 35.3175 35.3568C36.1244 34.5499 36.1244 33.2471 35.3175 32.4402Z" fill="#F2C14E"/>
<path d="M10.4491 10.4874C9.64219 11.2943 8.3384 11.2943 7.53149 10.4874L6.06258 9.01848C5.25567 8.21157 5.25567 6.90879 6.06258 6.10188C6.86949 5.29497 8.17328 5.29497 8.98019 6.10188L10.4491 7.57079C11.256 8.3777 11.256 9.68048 10.4491 10.4874Z" fill="#F2C14E"/>
<path d="M6.06258 32.4402C5.25567 33.2471 5.25567 34.5499 6.06258 35.3568C6.86949 36.1637 8.17328 36.1637 8.98019 35.3568L10.4491 33.8879C11.256 33.081 11.256 31.7782 10.4491 30.9713C9.64219 30.1644 8.3384 30.1644 7.53149 30.9713L6.06258 32.4402Z" fill="#F2C14E"/>
<path d="M30.931 10.4874C30.1241 9.68048 30.1241 8.3777 30.931 7.57079L32.3999 6.10188C33.2068 5.29497 34.5106 5.29497 35.3175 6.10188C36.1244 6.90879 36.1244 8.21157 35.3175 9.01848L33.8486 10.4874C33.0417 11.2943 31.7379 11.2943 30.931 10.4874Z" fill="#F2C14E"/>
<path d="M14.2547 24.0605C12.8477 21.3294 13.2825 17.8947 15.5791 15.6188C18.3929 12.7843 22.986 12.7843 25.7998 15.6188C28.0964 17.8947 28.5312 21.3294 27.1243 24.0605C26.607 25.0743 27 26.3164 28.0138 26.8337C29.0276 27.3716 30.2894 26.9574 30.8067 25.9436C33.0205 21.6608 32.3377 16.2811 28.7377 12.681C24.2893 8.23267 17.0896 8.23267 12.6413 12.681C9.04123 16.2811 8.35846 21.6608 10.5723 25.9436C11.0895 26.9574 12.3513 27.3716 13.3651 26.8337C14.3789 26.3164 14.7719 25.0743 14.2547 24.0605Z" fill="#F2C14E"/>
</svg>
