<svg width="30" height="30" viewBox="0 0 30 30" fill="none" xmlns="http://www.w3.org/2000/svg">
<path d="M26.1069 15.7115L24.0359 15.8025C22.778 15.8583 21.7843 16.9723 21.7843 18.33V24.6766C21.7843 27.1072 19.9555 29.0769 17.701 29.0769H11.5804C9.32448 29.0769 7.49712 27.1072 7.49712 24.6766V18.1245C7.49712 16.8828 6.5871 15.8612 5.43638 15.8113L3.17603 15.7115L7.49858 10.8649H11.9063C12.3745 10.8649 12.8383 10.9589 13.2742 11.1438C14.1534 11.5151 15.1309 11.5151 16.0101 11.1438H16.0116C16.4475 10.9603 16.9113 10.8664 17.3796 10.8664H21.7872L26.1069 15.7115Z" fill="#F2C14E"/>
<path d="M14.6406 10.2659C16.702 10.2659 18.3731 8.27742 18.3731 5.82447C18.3731 3.37153 16.702 1.38303 14.6406 1.38303C12.5792 1.38303 10.9081 3.37153 10.9081 5.82447C10.9081 8.27742 12.5792 10.2659 14.6406 10.2659Z" fill="#F2C14E"/>
<path d="M28.4234 14.6897C27.5926 15.3737 26.3641 15.2562 25.6801 14.4255L19.7181 7.19383L22.7255 4.71478L28.6876 11.9464C29.3715 12.7772 29.2541 14.0057 28.4234 14.6897Z" fill="#F2C14E"/>
<path d="M0.709114 14.8366C1.53987 15.5205 2.76838 15.4031 3.45236 14.5724L9.41441 7.34071L6.40696 4.86166L0.444917 12.0933C-0.23906 12.9241 -0.121639 14.1526 0.709114 14.8366Z" fill="#F2C14E"/>
<path d="M20.4551 1.89969C20.4551 1.89969 20.5167 4.29361 19.573 5.8964C19.3792 6.22665 19.4188 6.65083 19.6786 6.93264C19.6816 6.93558 19.686 6.93998 19.6889 6.94292L22.4307 4.63413C22.4307 4.63413 21.553 3.18251 21.4502 2.65265C21.4223 2.50588 21.3695 2.36497 21.277 2.24755C21.1332 2.06848 20.8793 1.87767 20.4551 1.89969Z" fill="#F2C14E"/>
<path d="M8.68722 2.04736C8.68722 2.04736 8.62557 4.44128 9.56934 6.04408C9.76309 6.37433 9.72346 6.79851 9.46366 7.08032C9.46073 7.08325 9.45632 7.08766 9.45339 7.09059L6.71161 4.7818C6.71161 4.7818 7.58933 3.33019 7.69207 2.80033C7.71996 2.65355 7.7728 2.51264 7.86527 2.39522C8.00911 2.21616 8.26303 2.02535 8.68722 2.04736Z" fill="#F2C14E"/>
<path d="M18.3716 3.7971H10.9081V2.35282C10.9081 1.05385 11.9619 0 13.2609 0H16.0188C17.3193 0 18.3716 1.05385 18.3716 2.35282V3.7971Z" fill="#F2C14E"/>
</svg>
