<svg width="45" height="52" viewBox="0 0 45 52" fill="none" xmlns="http://www.w3.org/2000/svg">
<path d="M34.3755 5.77515V1.875C34.3755 0.85 33.5255 0 32.5005 0C31.4755 0 30.6255 0.85 30.6255 1.875V5.625H14.3755V1.875C14.3755 0.85 13.5255 0 12.5005 0C11.4755 0 10.6255 0.85 10.6255 1.875V5.77515C3.87548 6.40015 0.600573 10.4251 0.100573 16.4001C0.050573 17.1251 0.650573 17.7249 1.35057 17.7249H43.6504C44.3754 17.7249 44.9754 17.1001 44.9004 16.4001C44.4004 10.4251 41.1255 6.40015 34.3755 5.77515Z" fill="#F2C14E"/>
<path d="M42.5 21.4742H2.5C1.125 21.4742 0 22.5992 0 23.9742V39.3743C0 46.8743 3.75 51.8743 12.5 51.8743H32.5C41.25 51.8743 45 46.8743 45 39.3743V23.9742C45 22.5992 43.875 21.4742 42.5 21.4742ZM15.5249 42.3992C15.3999 42.4992 15.2751 42.6242 15.1501 42.6992C15.0001 42.7992 14.8497 42.8744 14.6997 42.9244C14.5497 42.9994 14.3999 43.0493 14.2499 43.0743C14.0749 43.0993 13.925 43.1243 13.75 43.1243C13.425 43.1243 13.1003 43.0494 12.8003 42.9244C12.4753 42.7994 12.2251 42.6242 11.9751 42.3992C11.5251 41.9242 11.25 41.2743 11.25 40.6243C11.25 39.9743 11.5251 39.3244 11.9751 38.8494C12.2251 38.6244 12.4753 38.4492 12.8003 38.3242C13.2503 38.1242 13.7499 38.0744 14.2499 38.1744C14.3999 38.1994 14.5497 38.2492 14.6997 38.3242C14.8497 38.3742 15.0001 38.4494 15.1501 38.5494C15.2751 38.6494 15.3999 38.7494 15.5249 38.8494C15.9749 39.3244 16.25 39.9743 16.25 40.6243C16.25 41.2743 15.9749 41.9242 15.5249 42.3992ZM15.5249 33.6492C15.0499 34.0992 14.4 34.3743 13.75 34.3743C13.1 34.3743 12.4501 34.0992 11.9751 33.6492C11.5251 33.1742 11.25 32.5243 11.25 31.8743C11.25 31.2243 11.5251 30.5744 11.9751 30.0994C12.6751 29.3994 13.7747 29.1742 14.6997 29.5742C15.0247 29.6992 15.2999 29.8744 15.5249 30.0994C15.9749 30.5744 16.25 31.2243 16.25 31.8743C16.25 32.5243 15.9749 33.1742 15.5249 33.6492ZM24.2749 42.3992C23.7999 42.8492 23.15 43.1243 22.5 43.1243C21.85 43.1243 21.2001 42.8492 20.7251 42.3992C20.2751 41.9242 20 41.2743 20 40.6243C20 39.9743 20.2751 39.3244 20.7251 38.8494C21.6501 37.9244 23.3499 37.9244 24.2749 38.8494C24.7249 39.3244 25 39.9743 25 40.6243C25 41.2743 24.7249 41.9242 24.2749 42.3992ZM24.2749 33.6492C24.1499 33.7492 24.0251 33.8492 23.9001 33.9492C23.7501 34.0492 23.5997 34.1244 23.4497 34.1744C23.2997 34.2494 23.1499 34.2993 22.9999 34.3243C22.8249 34.3493 22.675 34.3743 22.5 34.3743C21.85 34.3743 21.2001 34.0992 20.7251 33.6492C20.2751 33.1742 20 32.5243 20 31.8743C20 31.2243 20.2751 30.5744 20.7251 30.0994C20.9501 29.8744 21.2253 29.6992 21.5503 29.5742C22.4753 29.1742 23.5749 29.3994 24.2749 30.0994C24.7249 30.5744 25 31.2243 25 31.8743C25 32.5243 24.7249 33.1742 24.2749 33.6492ZM33.0249 42.3992C32.5499 42.8492 31.9 43.1243 31.25 43.1243C30.6 43.1243 29.9501 42.8492 29.4751 42.3992C29.0251 41.9242 28.75 41.2743 28.75 40.6243C28.75 39.9743 29.0251 39.3244 29.4751 38.8494C30.4001 37.9244 32.0999 37.9244 33.0249 38.8494C33.4749 39.3244 33.75 39.9743 33.75 40.6243C33.75 41.2743 33.4749 41.9242 33.0249 42.3992ZM33.0249 33.6492C32.8999 33.7492 32.7751 33.8492 32.6501 33.9492C32.5001 34.0492 32.3497 34.1244 32.1997 34.1744C32.0497 34.2494 31.8999 34.2993 31.7499 34.3243C31.5749 34.3493 31.4 34.3743 31.25 34.3743C30.6 34.3743 29.9501 34.0992 29.4751 33.6492C29.0251 33.1742 28.75 32.5243 28.75 31.8743C28.75 31.2243 29.0251 30.5744 29.4751 30.0994C29.7251 29.8744 29.9753 29.6992 30.3003 29.5742C30.7503 29.3742 31.2499 29.3244 31.7499 29.4244C31.8999 29.4494 32.0497 29.4992 32.1997 29.5742C32.3497 29.6242 32.5001 29.6994 32.6501 29.7994C32.7751 29.8994 32.8999 29.9994 33.0249 30.0994C33.4749 30.5744 33.75 31.2243 33.75 31.8743C33.75 32.5243 33.4749 33.1742 33.0249 33.6492Z" fill="#F2C14E"/>
</svg>
