<svg width="53" height="53" viewBox="0 0 53 53" fill="none" xmlns="http://www.w3.org/2000/svg">
<path d="M26.25 0C11.7862 0 0 11.7862 0 26.25C0 40.7137 11.7862 52.5 26.25 52.5C40.7137 52.5 52.5 40.7137 52.5 26.25C52.5 11.7862 40.7137 0 26.25 0ZM37.6688 35.6213C37.3013 36.2512 36.645 36.5925 35.9625 36.5925C35.6213 36.5925 35.28 36.5137 34.965 36.3037L26.8275 31.4475C24.8063 30.24 23.31 27.5887 23.31 25.2525V14.49C23.31 13.4137 24.2025 12.5212 25.2787 12.5212C26.355 12.5212 27.2475 13.4137 27.2475 14.49V25.2525C27.2475 26.1975 28.035 27.5887 28.8487 28.0612L36.9863 32.9175C37.9313 33.4688 38.2463 34.6763 37.6688 35.6213Z" fill="#F2C14E"/>
</svg>
