<svg width="42" height="42" viewBox="0 0 42 42" fill="none" xmlns="http://www.w3.org/2000/svg">
<path d="M20.69 0.0393066C21.828 0.0393066 22.759 0.970357 22.759 2.10831V4.17731C22.759 5.31526 21.828 6.24631 20.69 6.24631C19.5521 6.24631 18.621 5.31526 18.621 4.17731V2.10831C18.621 0.970357 19.5521 0.0393066 20.69 0.0393066Z" fill="#F2C14E"/>
<path d="M20.69 35.2123C21.828 35.2123 22.759 36.1434 22.759 37.2813V39.3503C22.759 40.4883 21.828 41.4193 20.69 41.4193C19.5521 41.4193 18.621 40.4883 18.621 39.3503V37.2813C18.621 36.1434 19.5521 35.2123 20.69 35.2123Z" fill="#F2C14E"/>
<path d="M39.311 22.7983C40.449 22.7983 41.38 21.8673 41.38 20.7293C41.38 19.5914 40.449 18.6603 39.311 18.6603H37.242C36.1041 18.6603 35.173 19.5914 35.173 20.7293C35.173 21.8673 36.1041 22.7983 37.242 22.7983H39.311Z" fill="#F2C14E"/>
<path d="M6.207 20.7293C6.207 21.8673 5.27595 22.7983 4.138 22.7983H2.069C0.93105 22.7983 0 21.8673 0 20.7293C0 19.5914 0.93105 18.6603 2.069 18.6603H4.138C5.27595 18.6603 6.207 19.5914 6.207 20.7293Z" fill="#F2C14E"/>
<path d="M30.931 33.8879L32.3999 35.3568C33.2068 36.1637 34.5106 36.1637 35.3175 35.3568C36.1244 34.5499 36.1244 33.2471 35.3175 32.4402L33.8486 30.9713C33.0417 30.1644 31.7379 30.1644 30.931 30.9713C30.1241 31.7782 30.1241 33.081 30.931 33.8879Z" fill="#F2C14E"/>
<path d="M10.4491 10.4874C9.64219 11.2943 8.3384 11.2943 7.53149 10.4874L6.06258 9.01848C5.25567 8.21157 5.25567 6.90879 6.06258 6.10188C6.86949 5.29497 8.17328 5.29497 8.98019 6.10188L10.4491 7.57079C11.256 8.3777 11.256 9.68048 10.4491 10.4874Z" fill="#F2C14E"/>
<path d="M6.06258 32.4402C5.25567 33.2471 5.25567 34.5499 6.06258 35.3568C6.86949 36.1637 8.17328 36.1637 8.98019 35.3568L10.4491 33.8879C11.256 33.081 11.256 31.7782 10.4491 30.9713C9.64219 30.1644 8.3384 30.1644 7.53149 30.9713L6.06258 32.4402Z" fill="#F2C14E"/>
<path d="M30.931 10.4874C30.1241 9.68048 30.1241 8.3777 30.931 7.57079L32.3999 6.10188C33.2068 5.29497 34.5106 5.29497 35.3175 6.10188C36.1244 6.90879 36.1244 8.21157 35.3175 9.01848L33.8486 10.4874C33.0417 11.2943 31.7379 11.2943 30.931 10.4874Z" fill="#F2C14E"/>
<path fill-rule="evenodd" clip-rule="evenodd" d="M20.69 9.34981C14.4002 9.34981 9.3105 14.4395 9.3105 20.7293C9.3105 27.0191 14.4002 32.1088 20.69 32.1088C26.9798 32.1088 32.0695 27.0191 32.0695 20.7293C32.0695 14.4395 26.9798 9.34981 20.69 9.34981ZM13.4485 20.7293C13.4485 16.7361 16.6968 13.4878 20.69 13.4878C24.6832 13.4878 27.9315 16.7361 27.9315 20.7293C27.9315 24.7225 24.6832 27.9708 20.69 27.9708C16.6968 27.9708 13.4485 24.7225 13.4485 20.7293Z" fill="#F2C14E"/>
</svg>
