<svg width="42" height="42" viewBox="0 0 42 42" fill="none" xmlns="http://www.w3.org/2000/svg">
<path d="M20.692 0C21.8508 0 22.7612 0.93114 22.7612 2.0692V4.1384C22.7612 5.27646 21.8508 6.2076 20.692 6.2076C19.554 6.2076 18.6228 5.27646 18.6228 4.1384V2.0692C18.6228 0.93114 19.554 0 20.692 0Z" fill="#F2C14E"/>
<path d="M41.384 20.692C41.384 21.8301 40.4736 22.7612 39.3148 22.7612H37.2456C36.1076 22.7612 35.1764 21.8301 35.1764 20.692C35.1764 19.5539 36.1076 18.6228 37.2456 18.6228H39.3148C40.4736 18.6228 41.384 19.5539 41.384 20.692Z" fill="#F2C14E"/>
<path d="M4.13842 22.7612C5.29717 22.7612 6.20762 21.8301 6.20762 20.692C6.20762 19.5539 5.29717 18.6228 4.13842 18.6228H2.06922C0.931163 18.6228 2.28882e-05 19.5539 2.28882e-05 20.692C2.28882e-05 21.8301 0.931163 22.7612 2.06922 22.7612H4.13842Z" fill="#F2C14E"/>
<path d="M10.4496 10.4491C9.64264 11.2561 8.33922 11.2561 7.53223 10.4491L6.06318 8.98004C5.2562 8.17306 5.2562 6.87015 6.06318 6.06316C6.87017 5.25617 8.1943 5.25617 9.00129 6.06316L10.4496 7.53221C11.2773 8.3392 11.2773 9.64211 10.4496 10.4491Z" fill="#F2C14E"/>
<path d="M32.4051 6.06316L30.936 7.53221C30.129 8.3392 30.129 9.64211 30.936 10.4491C31.743 11.2561 33.0671 11.2561 33.8741 10.4491L35.3432 8.98004C36.1502 8.17306 36.1502 6.87015 35.3432 6.06316C34.5362 5.25617 33.212 5.25617 32.4051 6.06316Z" fill="#F2C14E"/>
<path d="M37.2456 33.1072C37.2456 34.2453 36.3352 35.1764 35.1764 35.1764H6.20762C5.06956 35.1764 4.13842 34.2453 4.13842 33.1072C4.13842 31.9691 5.06956 31.038 6.20762 31.038H35.1764C36.3352 31.038 37.2456 31.9691 37.2456 33.1072Z" fill="#F2C14E"/>
<path d="M31.2664 39.7492C31.2664 40.8873 30.6404 41.8184 29.8438 41.8184H9.92774C9.14532 41.8184 8.50516 40.8873 8.50516 39.7492C8.50516 38.6112 9.14532 37.68 9.92774 37.68H29.8438C30.6404 37.68 31.2664 38.6112 31.2664 39.7492Z" fill="#F2C14E"/>
<path d="M14.2581 24.0033C12.851 21.2927 13.306 17.8576 15.5821 15.5608C18.4169 12.7467 22.9903 12.7467 25.8251 15.5608C28.1012 17.8576 28.5562 21.2927 27.1492 24.0033C26.6112 25.0379 27.0249 26.2796 28.0388 26.7969C29.0527 27.3349 30.2944 26.9207 30.8117 25.9068C33.0257 21.6236 32.3429 16.2433 28.7425 12.6429C24.3144 8.19415 17.0928 8.19415 12.6648 12.6429C9.06435 16.2433 8.38151 21.6236 10.5956 25.9068C11.1129 26.9207 12.3546 27.3349 13.3685 26.7969C14.3824 26.2796 14.7961 25.0379 14.2581 24.0033Z" fill="#F2C14E"/>
</svg>
