<svg width="26" height="30" viewBox="0 0 26 30" fill="none" xmlns="http://www.w3.org/2000/svg">
<path d="M24.0014 15.7122L21.9304 15.8032C20.6725 15.859 19.6789 16.973 19.6789 18.3307V24.6772C19.6789 27.1078 17.85 29.0775 15.5956 29.0775H9.4751C7.21918 29.0775 5.39184 27.1078 5.39184 24.6772V18.1252C5.39184 16.8835 4.48184 15.862 3.33113 15.8121L1.0708 15.7122L5.39331 10.8658H9.80094C10.2692 10.8658 10.733 10.9597 11.1689 11.1446C12.0481 11.516 13.0256 11.516 13.9048 11.1446H13.9062C14.3421 10.9612 14.8059 10.8672 15.2742 10.8672H19.6818L24.0014 15.7122Z" fill="#F2C14E"/>
<path d="M12.5354 10.2658C14.5968 10.2658 16.2679 8.27733 16.2679 5.82442C16.2679 3.37151 14.5968 1.38303 12.5354 1.38303C10.474 1.38303 8.80292 3.37151 8.80292 5.82442C8.80292 8.27733 10.474 10.2658 12.5354 10.2658Z" fill="#F2C14E"/>
<path d="M16.2664 3.79705H8.80292V2.35279C8.80292 1.05384 9.85676 0 11.1557 0H13.9136C15.214 0 16.2664 1.05384 16.2664 2.35279V3.79705Z" fill="#F2C14E"/>
<rect x="5.46472" y="17.9988" width="14.1424" height="0.964251" fill="white"/>
<rect x="5.46472" y="21.8565" width="14.1424" height="0.964251" fill="white"/>
<path d="M22.0537 11.4946C22.0537 11.4946 24.9011 14.6429 25.0523 17.7898C25.1507 19.852 24.863 20.7238 24.3992 21.396C23.9486 22.0507 23.2015 22.4352 22.4074 22.4352H12.5354C12.5354 22.4352 13.8843 20.4552 12.5354 18.3725H21.38L20.3306 15.9903L15.9083 10.8943H20.1809C20.1794 10.8943 21.3859 10.6639 22.0537 11.4946Z" fill="#F2C14E"/>
<path d="M12.3108 22.4359H10.3777C9.25638 22.4359 8.34637 21.5259 8.34637 20.4045C8.34637 19.2831 9.25638 18.3731 10.3777 18.3731H12.3108C13.4321 18.3731 14.3421 19.2831 14.3421 20.4045C14.3421 21.5259 13.4321 22.4359 12.3108 22.4359Z" fill="white" stroke="#F2C14E" stroke-width="0.321417" stroke-miterlimit="10"/>
<path d="M3.01779 11.4946C3.01779 11.4946 0.170364 14.6429 0.019186 17.7898C-0.0791528 19.852 0.208525 20.7238 0.672332 21.396C1.12293 22.0507 1.87001 22.4352 2.66406 22.4352H12.5346C12.5346 22.4352 11.1858 20.4552 12.5346 18.3725H3.69148L4.74092 15.9903L9.16323 10.8943H4.89063C4.89063 10.8943 3.68561 10.6639 3.01779 11.4946Z" fill="#F2C14E"/>
</svg>
