<svg width="33" height="34" viewBox="0 0 33 34" fill="none" xmlns="http://www.w3.org/2000/svg">
<path fill-rule="evenodd" clip-rule="evenodd" d="M15.6833 0.903819C16.1611 1.54777 16.2028 2.42086 15.8289 3.12713C14.998 4.60197 14.5408 6.30512 14.5408 8.11233C14.5408 13.8455 19.1938 18.4986 24.927 18.4986C26.7342 18.4986 28.4374 18.0413 29.9122 17.2104C30.6185 16.8365 31.4911 16.8787 32.135 17.3565C32.779 17.8343 33.1116 18.6231 32.9662 19.4125C31.5537 27.1606 24.7816 33.0393 16.618 33.0393C7.43656 33.0393 0 25.6028 0 16.4213C0 8.25773 5.87874 1.48565 13.6269 0.073121C14.4162 -0.0722866 15.2056 0.259871 15.6833 0.903819ZM10.615 5.49548C6.77206 7.61427 4.1545 11.706 4.1545 16.4213C4.1545 23.297 9.74231 28.8848 16.618 28.8848C21.3334 28.8848 25.4256 26.2678 27.5444 22.4249C26.6927 22.5703 25.8202 22.6531 24.927 22.6531C16.8881 22.6531 10.3863 16.1513 10.3863 8.11233C10.3863 7.21911 10.4696 6.34715 10.615 5.49548Z" fill="#F2C14E"/>
</svg>
