<svg width="39" height="39" viewBox="0 0 39 39" fill="none" xmlns="http://www.w3.org/2000/svg">
<g filter="url(#filter0_i_52_166)">
<path d="M21.6667 9.60806C21.6667 8.56157 20.8105 7.70535 19.764 7.70535C18.7175 7.70535 17.8613 8.56157 17.8613 9.60806V11.5108C17.8613 12.5573 18.7175 13.4135 19.764 13.4135C20.8105 13.4135 21.6667 12.5573 21.6667 11.5108V9.60806Z" fill="#F2C14E"/>
<path d="M17.8622 11.5155C17.8622 12.562 18.7184 13.4183 19.7649 13.4183C20.8114 13.4183 21.6676 12.562 21.6676 11.5155L21.6676 6.58783L22.2195 7.15827C22.9615 7.90033 24.1791 7.90033 24.9212 7.15827C25.6632 6.41622 25.6632 5.19863 24.9212 4.45658L21.1158 0.651158C20.3737 -0.090899 19.1561 -0.0908991 18.4141 0.651158L14.6086 4.45657C13.8666 5.19863 13.8666 6.41622 14.6086 7.15827C15.3507 7.90033 16.5683 7.90033 17.3103 7.15827L17.8622 6.58783L17.8622 11.5155Z" fill="#F2C14E"/>
<path d="M36.8892 28.6357C37.9357 28.6357 38.7919 27.7795 38.7919 26.733C38.7919 25.6865 37.9357 24.8303 36.8892 24.8303H34.9865C33.94 24.8303 33.0838 25.6865 33.0838 26.733C33.0838 27.7795 33.94 28.6357 34.9865 28.6357H36.8892Z" fill="#F2C14E"/>
<path d="M6.44534 26.733C6.44534 27.7795 5.58912 28.6357 4.54263 28.6357H2.63992C1.59343 28.6357 0.737213 27.7795 0.737213 26.733C0.737213 25.6865 1.59343 24.8303 2.63992 24.8303H4.54263C5.58912 24.8303 6.44534 25.6865 6.44534 26.733Z" fill="#F2C14E"/>
<path d="M10.3447 17.3137C9.60266 18.0558 8.40366 18.0558 7.6616 17.3137L6.31075 15.9629C5.5687 15.2208 5.5687 14.0228 6.31075 13.2807C7.05281 12.5386 8.25181 12.5386 8.99387 13.2807L10.3447 14.6315C11.0868 15.3736 11.0868 16.5717 10.3447 17.3137Z" fill="#F2C14E"/>
<path d="M29.18 17.3137C28.4379 16.5717 28.4379 15.3736 29.18 14.6315L30.5308 13.2807C31.2729 12.5386 32.4719 12.5386 33.214 13.2807C33.956 14.0228 33.956 15.2208 33.214 15.9629L31.8631 17.3137C31.121 18.0558 29.922 18.0558 29.18 17.3137Z" fill="#F2C14E"/>
<path d="M13.8446 29.797C12.5508 27.2854 12.9506 24.1268 15.0626 22.0338C17.6503 19.4271 21.8742 19.4271 24.4619 22.0338C26.5739 24.1268 26.9737 27.2854 25.6798 29.797C25.2042 30.7293 25.5656 31.8716 26.4979 32.3473C27.4302 32.842 28.5906 32.4611 29.0663 31.5288C31.1022 27.5901 30.4743 22.6428 27.1636 19.3321C23.0727 15.2413 16.4517 15.2413 12.3609 19.3321C9.05018 22.6428 8.42228 27.5901 10.4582 31.5288C10.9339 32.4611 12.0942 32.842 13.0266 32.3473C13.9589 31.8716 14.3203 30.7293 13.8446 29.797Z" fill="#F2C14E"/>
<path d="M34.9858 36.2462C34.9858 37.2927 34.1487 38.1489 33.0831 38.1489H6.44522C5.39873 38.1489 4.54251 37.2927 4.54251 36.2462C4.54251 35.1997 5.39873 34.3435 6.44522 34.3435H33.0831C34.1487 34.3435 34.9858 35.1997 34.9858 36.2462Z" fill="#F2C14E"/>
</g>
<defs>
<filter id="filter0_i_52_166" x="0.737213" y="-0.829954" width="38.0547" height="38.9789" filterUnits="userSpaceOnUse" color-interpolation-filters="sRGB">
<feFlood flood-opacity="0" result="BackgroundImageFix"/>
<feBlend mode="normal" in="SourceGraphic" in2="BackgroundImageFix" result="shape"/>
<feColorMatrix in="SourceAlpha" type="matrix" values="0 0 0 0 0 0 0 0 0 0 0 0 0 0 0 0 0 0 127 0" result="hardAlpha"/>
<feOffset dy="-0.924574"/>
<feGaussianBlur stdDeviation="1.20195"/>
<feComposite in2="hardAlpha" operator="arithmetic" k2="-1" k3="1"/>
<feColorMatrix type="matrix" values="0 0 0 0 0 0 0 0 0 0 0 0 0 0 0 0 0 0 0.25 0"/>
<feBlend mode="normal" in2="shape" result="effect1_innerShadow_52_166"/>
</filter>
</defs>
</svg>
