<svg width="33" height="34" viewBox="0 0 33 34" fill="none" xmlns="http://www.w3.org/2000/svg">
<path d="M16.0252 3.08537C16.3964 2.38412 16.355 1.53837 15.8806 0.898999C15.4269 0.238999 14.6225 -0.0701741 13.8388 0.0742008C7.01192 1.3117 1.8349 7.29243 1.8349 14.4906C1.8349 18.1412 3.17599 21.5033 5.40349 24.0608C6.14599 24.9271 7.44518 25.0299 8.31143 24.2874C9.15706 23.5449 9.25988 22.2256 8.51738 21.38C6.90863 19.5237 5.9599 17.1099 5.9599 14.4906C5.9599 10.6955 7.94024 7.37573 10.9515 5.51948C10.869 6.09698 10.8276 6.69483 10.8276 7.29295C10.8276 14.3879 16.582 20.1423 23.677 20.1423C24.2751 20.1423 24.8734 20.1009 25.4509 20.0184C25.1416 20.4928 24.8116 20.9469 24.461 21.38C23.7185 22.2256 23.8007 23.5449 24.6669 24.2874C25.5332 25.0299 26.8329 24.9271 27.5754 24.0608C29.246 22.1427 30.4213 19.7505 30.8957 17.1311C31.0401 16.3474 30.7309 15.5425 30.0709 15.0888C29.4315 14.6144 28.5858 14.5735 27.8845 14.9447C26.647 15.6254 25.2032 16.0173 23.677 16.0173C18.8507 16.0173 14.9526 12.1192 14.9526 7.29295C14.9526 5.7667 15.3445 4.34349 16.0252 3.08537Z" fill="#F2C14E"/>
<path d="M30.9375 33.0333C32.0719 33.0333 33 32.1051 33 30.9708C33 29.8364 32.0719 28.9083 30.9375 28.9083H2.0625C0.928125 28.9083 0 29.8364 0 30.9708C0 32.1051 0.928125 33.0333 2.0625 33.0333H30.9375Z" fill="#F2C14E"/>
</svg>
