<svg width="375" height="241" viewBox="0 0 375 241" fill="none" xmlns="http://www.w3.org/2000/svg">
<mask id="mask0_4_20" style="mask-type:luminance" maskUnits="userSpaceOnUse" x="-2" y="0" width="380" height="243">
<path d="M378 0H-2V242.633H378V0Z" fill="white"/>
</mask>
<g mask="url(#mask0_4_20)">
<g opacity="0.25">
<path d="M-2 116.077V242.633H376.8V117.131H378V116.039H375.39C375.61 115.352 375.76 114.637 375.76 113.873C375.76 110.722 373.68 108.044 370.77 107.029C370.77 106.991 370.78 106.952 370.78 106.913C370.78 105.831 370.08 104.922 369.07 104.574L368.71 103.511C368.78 103.404 368.83 103.298 368.83 103.172C368.83 102.921 368.67 102.708 368.46 102.621L368.24 99.2573C368.24 99.2379 368.22 99.2282 368.2 99.2282C368.18 99.2282 368.16 99.2379 368.16 99.2573L367.94 102.621C367.72 102.728 367.57 102.921 367.57 103.172C367.57 103.298 367.62 103.404 367.68 103.511L367.32 104.574C366.33 104.922 365.62 105.831 365.62 106.913C365.62 106.952 365.64 106.991 365.64 107.029C362.73 108.044 360.65 110.703 360.65 113.873C360.65 114.637 360.8 115.352 361.02 116.039H358.41V116.077H358.15V103.385H358.29C358.63 103.385 358.88 103.124 358.88 102.815V102.486C358.88 102.167 358.61 101.916 358.29 101.916H357.48C357.52 101.703 357.53 101.481 357.53 101.268C357.53 99.731 356.68 98.368 355.42 97.614C354.64 97.1403 353.97 96.5312 353.43 95.8256C353.53 95.7386 353.6 95.613 353.6 95.4583C353.6 95.265 353.47 95.091 353.29 95.004L353.16 93.0513H353.01L352.88 95.004C352.7 95.0717 352.57 95.2553 352.57 95.4583C352.57 95.6033 352.63 95.7386 352.74 95.8256C352.2 96.5409 351.53 97.1403 350.74 97.614C349.47 98.368 348.63 99.731 348.63 101.268C348.63 101.49 348.66 101.703 348.68 101.916H347.9C347.56 101.916 347.31 102.177 347.31 102.486V102.815C347.31 103.134 347.58 103.385 347.9 103.385H348.01V111.476H346.07C346.57 110.558 346.84 109.581 346.84 108.576C346.84 105.057 343.54 101.993 338.57 100.272C335.34 99.151 332.59 97.6526 330.44 95.8836C330.52 95.7386 330.58 95.5646 330.58 95.3712C330.58 94.9169 330.3 94.5208 329.89 94.3468L329.59 89.9H329.25L328.95 94.3468C328.54 94.5208 328.26 94.9169 328.26 95.3712C328.26 95.5646 328.31 95.7193 328.4 95.8836C326.25 97.6526 323.52 99.1413 320.27 100.272C315.3 101.993 312 105.077 312 108.576C312 109.166 312.1 109.736 312.28 110.297H310.86C311.31 108.866 311.56 107.358 311.56 105.792C311.56 97.9813 305.47 91.5627 297.65 90.6831L296.66 87.7637C296.65 87.7444 296.56 87.7153 296.43 87.6863L295.86 79.5759C295.86 79.5469 295.83 79.518 295.8 79.518C295.76 79.518 295.74 79.5469 295.74 79.5759L295.19 87.6766C295.07 87.7056 294.98 87.725 294.96 87.754L293.97 90.6734C288.11 91.3307 283.23 95.1006 281.15 100.224L280.98 91.6786H281.8V90.161H280.94L280.72 79.3343H281.68V78.4547H281.12V78.155H280.56V74.2304H281.12V73.8534H280.23C280.31 73.6214 280.35 73.37 280.35 73.109C280.35 72.2003 279.85 71.4174 279.12 70.9727C278.66 70.6924 278.27 70.3346 277.96 69.9286C278.01 69.8706 278.05 69.803 278.05 69.716C278.05 69.6 277.97 69.4936 277.87 69.455L277.8 68.44C277.85 68.4594 277.89 68.4593 277.94 68.4593C278.34 68.4593 278.66 68.1694 278.72 67.8117C278.61 68.0244 278.38 68.1694 278.12 68.1694C277.76 68.1694 277.47 67.889 277.47 67.541C277.47 67.2897 277.62 67.0674 277.84 66.961C277.46 67.019 277.16 67.3284 277.16 67.715C277.16 68.0437 277.38 68.324 277.7 68.4207L277.64 69.4647C277.53 69.513 277.46 69.6097 277.46 69.7257C277.46 69.8127 277.49 69.89 277.55 69.9383C277.24 70.3636 276.84 70.7117 276.39 70.9824C275.65 71.427 275.15 72.21 275.15 73.1187C275.15 73.3797 275.19 73.631 275.27 73.863H274.38V74.24H274.92V78.184H274.38V78.474H273.82V79.3633H274.77L274.55 90.19H273.69V91.7077H274.52L274.29 103.53H273.07V105.048H274.27L274.16 110.403H269.9C271.24 107.967 271.98 105.386 271.98 102.689C271.98 93.3123 263.15 85.115 249.9 80.5137C241.31 77.5364 233.9 73.5827 228.17 68.9137C228.42 68.4787 228.57 67.9954 228.57 67.4734C228.57 66.2457 227.81 65.1823 226.71 64.728L225.91 52.9056H225L224.2 64.728C223.11 65.1823 222.33 66.2457 222.33 67.4734C222.33 67.9954 222.49 68.498 222.73 68.9137C217.01 73.5924 209.68 77.5074 201.01 80.5137C198.54 81.374 196.22 82.3599 194.08 83.4426V49.2806H194.32C194.84 49.2806 195.28 48.865 195.28 48.3527V47.8306C195.28 47.3183 194.84 46.9027 194.32 46.9027H193C193.06 46.545 193.09 46.197 193.09 45.8394C193.09 43.3454 191.73 41.151 189.67 39.9234C188.41 39.1597 187.32 38.1834 186.46 37.0234C186.62 36.8784 186.71 36.6753 186.71 36.4433C186.71 36.1146 186.51 35.8343 186.21 35.7086L186.01 32.5477H185.76L185.56 35.7086C185.26 35.8343 185.05 36.1146 185.05 36.4433C185.05 36.6656 185.16 36.8784 185.32 37.0234C184.46 38.1834 183.38 39.1597 182.11 39.9234C180.06 41.1414 178.69 43.326 178.69 45.8394C178.69 46.197 178.73 46.545 178.78 46.9027H177.5C176.98 46.9027 176.54 47.3183 176.54 47.8306V48.3527C176.54 48.865 176.96 49.2806 177.5 49.2806H177.7V71.021C175.11 63.5873 169.89 57.333 163.11 53.273C157.08 49.6673 151.84 44.9307 147.7 39.3917C148.47 38.6957 148.96 37.7 148.96 36.5883C148.96 35.0223 147.98 33.669 146.58 33.0696L145.68 19.6716C146.27 19.7683 146.89 19.8263 147.5 19.8263C152.74 19.8263 157.06 16.0467 157.72 11.165C156.32 13.978 153.36 15.9113 149.92 15.9113C145.14 15.9113 141.25 12.1607 141.25 7.53037C141.25 4.2147 143.26 1.34367 146.17 0C141.11 0.638 137.2 4.81396 137.2 9.86963C137.2 14.2873 140.18 18.0283 144.3 19.3333L143.38 33.0696C141.97 33.669 141 35.0126 141 36.5883C141 37.7 141.48 38.6763 142.26 39.3917C138.11 44.95 132.93 49.6287 126.84 53.273C117.04 59.131 110.49 69.6291 110.49 81.6157C110.49 85.0474 111.04 88.363 112.04 91.4853H103.84C103.88 90.9633 103.91 90.4413 103.91 89.9C103.91 78.851 95.3 69.7547 84.2 68.5077L82.8 64.3703C82.79 64.3316 82.66 64.293 82.48 64.2543L81.71 52.78C81.71 52.7413 81.6501 52.7027 81.6001 52.7027C81.5501 52.7027 81.5 52.7316 81.5 52.78L80.73 64.2543C80.55 64.2833 80.4199 64.3123 80.4099 64.3703L78.99 68.5077C67.9 69.7547 59.3 78.851 59.3 89.9C59.3 92.133 59.64 94.2694 60.29 96.2801H52.7V99.5183H56.23V116.077H48.23L47.78 92.9836H49.8799V90.3253H47.73L47.3201 69.5516H48.77V66.8933H47.27L46.8999 47.8694H48.5601V46.3227H47.5801V45.8007H46.5901V38.8793H47.5801V38.222H46.02C46.16 37.8064 46.23 37.3713 46.23 36.9169C46.23 35.3219 45.35 33.9397 44.05 33.1567C43.26 32.6734 42.56 32.0547 42.02 31.32C42.12 31.233 42.1899 31.0977 42.1899 30.943C42.1899 30.7303 42.0601 30.5564 41.8701 30.4694L41.74 28.71C41.81 28.7196 41.89 28.7293 41.98 28.7293C42.68 28.7293 43.2401 28.2364 43.3301 27.5887C43.1501 27.9657 42.75 28.2266 42.3 28.2266C41.67 28.2266 41.1599 27.724 41.1599 27.115C41.1599 26.68 41.4301 26.2934 41.8101 26.1194C41.1501 26.2064 40.6299 26.7573 40.6299 27.4243C40.6299 28.014 41.0301 28.507 41.5701 28.6714L41.45 30.4984C41.27 30.5757 41.1299 30.7594 41.1299 30.972C41.1299 31.117 41.2 31.2427 41.3 31.3394C40.76 32.0934 40.06 32.7023 39.25 33.1856C37.96 33.9686 37.0801 35.351 37.0801 36.9363C37.0801 37.4003 37.16 37.8354 37.29 38.2414H35.73V38.8987H36.6799V45.8297H35.73V46.3516H34.74V47.8887H36.4099L36.04 66.9126H34.52V69.5806H35.99L35.5601 90.3253H33.3999V92.9836H35.51L35.05 116.077H31.01V74.8586H31.3601C32.1701 74.8586 32.8201 74.2303 32.8201 73.4473V72.6353C32.8201 71.8523 32.1701 71.2144 31.3601 71.2144H29.3601C29.4401 70.6924 29.5 70.1607 29.5 69.6097C29.5 65.801 27.42 62.4659 24.29 60.6003C22.38 59.4596 20.6999 57.9517 19.3899 56.1827C19.6399 55.9603 19.79 55.651 19.79 55.303C19.79 54.81 19.48 54.375 19.03 54.1817L18.71 49.3676H18.3401L18.02 54.1817C17.57 54.375 17.26 54.81 17.26 55.303C17.26 55.651 17.4099 55.9603 17.6599 56.1827C16.3399 57.9517 14.68 59.4403 12.75 60.6003C9.63 62.4659 7.55005 65.801 7.55005 69.6097C7.55005 70.1607 7.59994 70.6924 7.68994 71.2144H5.76001C4.95001 71.2144 4.29004 71.8523 4.29004 72.6353V73.4473C4.29004 74.2303 4.95001 74.8586 5.76001 74.8586H6.04004V116.077H-2ZM355.86 107.078C355.86 105.927 356.21 104.97 356.68 104.69C357.16 104.97 357.51 105.927 357.51 107.078V111.553H355.87V107.078H355.86ZM351 106.604C351 105.347 351.87 104.274 353.07 103.965C354.27 104.294 355.14 105.347 355.14 106.604V111.553H351.99V111.476H350.99V106.604H351ZM348.66 107.078C348.66 105.927 349 104.97 349.48 104.69C349.96 104.97 350.3 105.927 350.3 107.078V111.476H348.67V107.078H348.66ZM279.51 74.9457C279.51 74.82 279.62 74.7331 279.73 74.7331H279.84C279.95 74.7331 280.05 74.8394 280.05 74.9457V78.184H279.5V74.9457H279.51ZM278.48 74.9457C278.48 74.82 278.59 74.7331 278.7 74.7331H278.81C278.92 74.7331 279.03 74.8394 279.03 74.9457V78.184H278.47V74.9457H278.48ZM277.46 74.9457C277.46 74.82 277.56 74.7331 277.67 74.7331H277.78C277.89 74.7331 278 74.8394 278 74.9457V78.184H277.44V74.9457H277.46ZM276.41 74.9457C276.41 74.82 276.52 74.7331 276.63 74.7331H276.74C276.85 74.7331 276.95 74.8394 276.95 74.9457V78.184H276.4V74.9457H276.41ZM275.38 74.9457C275.38 74.82 275.49 74.7331 275.6 74.7331H275.71C275.82 74.7331 275.92 74.8394 275.92 74.9457V78.184H275.37V74.9457H275.38ZM190.42 55.245C190.42 53.3987 190.98 51.8424 191.74 51.3784C192.5 51.8424 193.07 53.3987 193.07 55.245V62.4757H190.42V55.245ZM182.56 54.4813C182.56 52.4417 183.97 50.7306 185.92 50.2183C187.85 50.7403 189.27 52.4513 189.27 54.4813V62.4853H182.56V54.4813ZM178.78 55.245C178.78 53.3987 179.34 51.8424 180.1 51.3784C180.86 51.8424 181.43 53.3987 181.43 55.245V62.4757H178.78V55.245ZM44.76 40.1263C44.76 39.9137 44.9299 39.7493 45.1499 39.7493H45.3401C45.5601 39.7493 45.73 39.9137 45.73 40.1263V45.791H44.76V40.1263ZM42.95 40.1263C42.95 39.9137 43.1101 39.7493 43.3301 39.7493H43.53C43.74 39.7493 43.9099 39.9137 43.9099 40.1263V45.791H42.95V40.1263ZM41.1499 40.1263C41.1499 39.9137 41.33 39.7493 41.53 39.7493H41.72C41.94 39.7493 42.1101 39.9137 42.1101 40.1263V45.791H41.1499V40.1263ZM39.3301 40.1263C39.3301 39.9137 39.51 39.7493 39.72 39.7493H39.9099C40.1299 39.7493 40.3 39.9137 40.3 40.1263V45.791H39.3301V40.1263ZM37.52 40.1263C37.52 39.9137 37.6899 39.7493 37.8999 39.7493H38.1001C38.3201 39.7493 38.48 39.9137 38.48 40.1263V45.791H37.52V40.1263ZM25.3999 83.9647C25.3999 81.1517 26.2499 78.793 27.4199 78.0777C28.5899 78.8027 29.4399 81.1517 29.4399 83.9647V95.004H25.3999V83.9647ZM13.4099 82.795C13.4099 79.6824 15.57 77.082 18.53 76.2894C21.48 77.082 23.6499 79.692 23.6499 82.795V94.9847H13.4199V82.795H13.4099ZM7.65991 83.9647C7.65991 81.1517 8.50993 78.793 9.67993 78.0777C10.8499 78.8027 11.7 81.1517 11.7 83.9647V95.004H7.65991V83.9647Z" fill="#FFE66D"/>
</g>
</g>
</svg>
